<svg 
          width="20" 
          height="20" fill="none" 
          xmlns="http://www.w3.org/2000/svg">
          <path d="M 12.59000015258789 6 L 10 8.59000015258789 L 7.409999847412109 6 L 6 7.409999847412109 L 8.59000015258789 10 L 6 12.59000015258789 L 7.409999847412109 14 L 10 11.40999984741211 L 12.59000015258789 14 L 14 12.59000015258789 L 11.40999984741211 10 L 14 7.409999847412109 L 12.59000015258789 6 Z M 10 0 C 4.46999979019165 0 0 4.46999979019165 0 10 C 0 15.53000020980835 4.46999979019165 20 10 20 C 15.53000020980835 20 20 15.53000020980835 20 10 C 20 4.46999979019165 15.53000020980835 0 10 0 Z M 10 18 C 5.590000152587891 18 2 14.40999984741211 2 10 C 2 5.590000152587891 5.590000152587891 2 10 2 C 14.40999984741211 2 18 5.590000152587891 18 10 C 18 14.40999984741211 14.40999984741211 18 10 18 Z" fill="rgb(0,0,0)"/>
        </svg>